<?xml version="1.0" encoding="UTF-8"?>
<!DOCTYPE svg PUBLIC "-//W3C//DTD SVG 1.1//EN" "http://www.w3.org/Graphics/SVG/1.1/DTD/svg11.dtd">
<!-- Creator: CorelDRAW 2019 (64 Bit) -->
<svg xmlns="http://www.w3.org/2000/svg" xml:space="preserve" width="5138px" height="1299px" version="1.1" style="shape-rendering:geometricPrecision; text-rendering:geometricPrecision; image-rendering:optimizeQuality; fill-rule:evenodd; clip-rule:evenodd"
viewBox="0 0 5138 1299.26"
 xmlns:xlink="http://www.w3.org/1999/xlink"
 xmlns:xodm="http://www.corel.com/coreldraw/odm/2003">
 <defs>
  <style type="text/css">
   <![CDATA[
    .fil2 {fill:black}
    .fil4 {fill:#00375F}
    .fil3 {fill:#003760}
    .fil0 {fill:#3B94CE}
    .fil1 {fill:#3E94CD}
    .fil5 {fill:#FEFEFE}
   ]]>
  </style>
 </defs>
 <g id="Camada_x0020_1">
  <metadata id="CorelCorpID_0Corel-Layer"/>
  <g id="_2629532237808">
   <path class="fil0" d="M632.21 405.7c0,59.16 11.26,120.32 26.2,176.24l15.04 53.66c2.97,8.92 5.58,15.87 8.1,25.03 7.29,26.59 25.6,72.4 36.9,99.28 11.71,27.83 22.13,56.45 35.62,83.39l21.96 46.75c11.74,22.4 21.6,45.87 34.04,67.78 1.31,2.31 1.5,3.27 2.73,5.87l69.46 126.83c2.37,3.94 3.96,7.2 6.37,10.81l38.24 63.59c1.96,3.03 18.64,19.84 5.93,19.84 -7.39,0 -24.08,-18.32 -29.93,-24.06l-24.97 -24.1c-21.34,-21.26 -42.82,-44.69 -61.83,-68.23 -21.96,-27.2 -43.84,-54.57 -64.33,-82.89 -39.48,-54.56 -73.93,-113.17 -103.99,-173.29 -4.08,-8.17 -8.45,-15.9 -11.68,-23.89 -1.92,-4.74 -3.36,-7.15 -5.43,-11.75 -1.96,-4.36 -3.29,-7.49 -5.37,-11.8 -3.93,-8.13 -6.97,-15.39 -10.57,-23.78l-47.06 -125.93c-11.82,-36.17 -21.72,-73.4 -29.18,-110.69 -1.02,-5.12 -1.95,-10.1 -2.93,-14.25 -1.01,-4.27 -1.77,-11.38 -3.92,-14.48 -1.22,5.25 -2.3,17.1 -2.45,23.31l-15.95 191.39c-0.42,16.78 -5.21,50.67 -6.15,72.38 -1.41,32.93 -7.06,84.24 -9.87,120.17 -1.88,24.02 -5.05,48.44 -6.08,72.45 -0.78,18.29 -5.18,49.14 -6.13,71.16l-8.24 96.05c-2.37,18.21 -3.36,51.24 -6.14,72.38 -1.08,8.28 -1.01,15.79 -1.64,24.12 -0.58,7.61 -2.38,16.2 -2.38,24.62l615.9 0c1.12,-4.19 5.81,-9.94 8.34,-13.74l173.72 -261.83c3.29,-4.89 5.36,-8.54 8.6,-13.48 22.61,-34.41 67.25,-108.23 86.61,-144.04 10.55,-19.51 22.86,-38 32.72,-58.08l16.12 -29.27c3.19,-5.24 4.92,-9.85 8.12,-15.19 3.23,-5.4 5.38,-9.86 8.06,-15.25 12.54,-25.29 27.91,-50.31 39.25,-76.08l58.4 -124.4c18.27,-43.85 37.01,-86.53 52.2,-131.83 16.32,-48.66 35.89,-149.85 -44.33,-149.85 -23.77,0 -45.87,6.35 -64.58,12.72l-38.9 16.3c-4.02,1.92 -9.67,5.65 -13.07,6.56 0,7.89 2.34,16.11 2.46,24.53 0.37,27.42 2.72,57.61 -0.87,85.03 -2.76,21.03 -6.07,42.31 -11.16,62.45l-12.71 42.51c-12.54,33.75 -27.6,70.81 -47.64,100.81l-38.32 53.69 -53.53 48.3c-38.46,26.82 -86.95,36.23 -117.97,-7.53 -15.86,-22.36 -12.69,-84.54 -7.88,-113.41 12.76,-76.62 51.34,-144.66 98.84,-204.2 13.2,-16.54 26.09,-32.01 41.07,-47.27 0.17,-0.18 0.44,-0.43 0.61,-0.61l5.5 -5.55c6.98,-7.74 28.74,-29.33 37.31,-35.07 -13.7,-25.89 -35.57,-48.68 -58.36,-66.59l-17.7 -13.16c-14.33,-9.58 -29.63,-17.78 -44.97,-24.96 -46.49,-21.75 -104.8,-34.5 -156.29,-35.1 -6.3,-0.08 -9.12,-1.74 -15.34,-0.8 -14.87,2.23 -50.23,0.63 -81.92,5.27 -66.77,9.79 -98.57,18.3 -159.93,48.64 -15.69,7.76 -28.99,16.74 -42.82,27.11 -26.38,19.77 -50.14,44.25 -67.32,72.55 -4.73,7.81 -8.37,15.28 -11.74,23.83 -12.87,32.65 -20.85,73.55 -20.85,119.03z"/>
   <path class="fil1" d="M3039.35 381.16c30,0 60.39,13.19 78.82,34.05 4.57,5.18 8.26,10.62 11.99,16.24 21.11,31.81 25.61,79.55 11.4,115.71 -10.57,26.88 -25.72,45.5 -50.25,58.94 -49.11,26.92 -118.14,7.95 -143.99,-42.12 -3.26,-6.3 -6.12,-12.02 -8.95,-19.26 -8.62,-22.02 -9.66,-49.04 -5.04,-72.06 10.34,-51.64 51.09,-91.5 106.02,-91.5zm-1010.95 112.87l-47.84 0 0 -116.55 47.84 0c38.78,0 73.62,15.88 73.62,53.98 0,21.57 -3.6,36.46 -22.79,49.6 -12.1,8.27 -30.94,12.97 -50.83,12.97zm495.66 -7.36l-77.29 0 0 -101.83c25.16,0 86.58,-2.45 106.92,3.5 33.82,9.89 45.12,42.8 30.69,70.31 -3.66,6.99 -7.55,11.22 -13.91,15.54 -11.56,7.84 -27.62,12.48 -46.41,12.48zm242.93 -79.75c-3.15,-13.5 -3.46,-30.52 -7.81,-43.72 -8.53,-25.88 -20.48,-45.39 -38.35,-64.71 -0.17,-0.18 -0.41,-0.45 -0.59,-0.63 -0.17,-0.19 -0.42,-0.45 -0.6,-0.63 -0.68,-0.67 -1.24,-1.14 -1.92,-1.76l-10.14 -9.5c-51.39,-40.16 -114.05,-50.81 -182.29,-50.81l-252.74 0c-6.14,0 -3.68,19.12 -3.68,28.22l-1.66 93.68c-8.1,-19.12 -16.88,-37.01 -31.17,-52.27l-22.65 -21.51c-43.97,-36.25 -117.14,-48.12 -172.72,-48.12l-234.33 0c-2.83,0 -3.68,0.85 -3.68,3.68l0 522.65c0,2.83 0.85,3.68 3.68,3.68l170.54 0c2.82,0 3.68,-0.85 3.68,-3.68l0 -139.86c78.28,0 147.49,1.11 214.78,-39.18 3.01,-1.8 3.74,-2.52 6.62,-4.43l20.01 -15.57c16.29,-16.12 30.29,-33.61 39.58,-54.88 2.42,-5.54 3.79,-12.13 7.32,-17.22l0 260.1c-0.04,6.02 -1.91,14.72 3.68,14.72l170.54 0c2.83,0 3.68,-0.85 3.68,-3.68l0 -147.22 38.03 0c2.08,7.75 18.9,29.34 24.48,38.09l62.88 95.39c2.61,3.92 10.04,17.42 14.48,17.42l195.07 0c7.87,0 -3.5,-12.14 -5.58,-15.27l-34.9 -50.99c-5.43,-7.69 -10.51,-15.64 -15.95,-23.3l-46.38 -67.72c-4.12,-6.22 -14.38,-17.24 -14.97,-24.3 9.38,-2.18 19.25,-9.59 27.01,-14.7 15.75,-10.39 32.66,-25.61 43.41,-41.24l16.69 -26.26c0,57.35 17.65,113.85 51.35,158.44 5.42,7.17 8.84,12.59 15.22,19.14 3.37,3.46 4.35,5.66 7.94,9.23l37.65 32.29c3.91,2.8 7,5.2 10.75,7.65 79.19,51.8 195.14,64.01 283.22,24.8 39.78,-17.71 51.82,-27.52 84.8,-53.84 16.97,-13.54 43.33,-48.03 53,-67.23 2.45,-4.85 3.72,-7.44 6.43,-11.97 4.12,-6.88 7.03,-16.69 10.3,-24.06 3.15,-7.08 6.44,-18.2 8.37,-25.99 15.52,-62.83 10.75,-132.27 -18.16,-189.92 -9.68,-19.29 -20.23,-35.95 -33.51,-52.37 -53.66,-66.32 -136.58,-103.44 -222.91,-103.44 -68.32,0 -127.96,18.19 -180.35,55.21 -18.12,12.8 -29.66,24.28 -44.46,40.19 -5.12,5.5 -8.5,9.12 -13.04,15.19 -8.53,11.39 -14.94,21.42 -22.5,33.93 -6.43,10.65 -10.88,22.05 -15.67,33.4l-1.58 3.33c-0.11,0.21 -0.36,0.61 -0.45,0.78 -0.09,0.16 -0.28,0.53 -0.45,0.77z"/>
   <path class="fil1" d="M3476.12 768.85l163.18 0c4.42,0 5.43,-5.21 8.07,-11.56l53.62 -132.86c4.35,-10.08 7.61,-20.23 11.89,-29.83 15.48,-34.78 31.82,-80.97 47.52,-118.1l66.1 -163.33c2.01,-5.03 2.98,-11.53 6.65,-14.21l0 466.21 451.49 0c2.83,0 3.68,-0.85 3.68,-3.68l0 -139.86c0,-2.83 -0.85,-3.68 -3.68,-3.68l-277.28 0 0 -55.21 255.19 0c2.83,0 3.69,-0.86 3.69,-3.68l0 -121.47c0,-2.82 -0.86,-3.68 -3.69,-3.68l-255.19 0 0 -52.75 277.28 0 0 -142.32c0,-5.59 -8.71,-3.72 -14.72,-3.68 -201.69,1.18 -406.76,0 -608.54,0 -1.33,5.74 -4.05,13.19 -6.13,18.4l-31.64 91.05c-6.86,23.48 -28.71,82.03 -37.83,109.4l-21.83 64.05c-1.56,4.07 -2.76,5.41 -3.17,10.32l-2.46 0c-0.32,-3.88 -4.64,-14.53 -5.97,-18.56 -15.87,-47.81 -35.12,-98.73 -50.93,-146.6l-25.13 -73.02c-2.2,-6.66 -4.24,-11.31 -6.3,-18.23 -1.66,-5.58 -4.14,-12.47 -6.31,-18.23 -2.27,-6.03 -4.19,-12.92 -7.19,-18.58l-197.52 0c0.45,5.47 4.18,12.91 5.95,17.35l201.91 501.1c1.7,4.25 4.67,15.24 9.29,15.24z"/>
   <path class="fil2" d="M231.37 1113.58l19.62 -0.45c2.29,38.82 42.3,9.43 13.38,-5.33l0.01 -21.03c38.56,-0.03 43.61,62.83 5.43,68.08 -17.87,2.46 -24.19,-10.92 -27.78,-14.14 -11.93,28.68 -47.63,24.89 -60.37,1.4 -11.61,-21.41 -6.06,-57.17 32.2,-60.28l0.4 20.73c-3.72,5.79 -11.4,2.42 -15.56,11.86 -7.36,16.69 11.66,31.8 25,20.08 5.4,-4.75 7.49,-11.53 7.67,-20.92zm-20.1 -85.47l19.43 -0.05 0.51 40.06 -19.67 -0.01 -0.27 -40zm22.21 -62.29c15.83,0 15.27,-1.37 17.43,3.01 0.44,0.89 2.42,20.98 17.57,15.48 4.33,-1.57 7.08,-7.3 5.44,-13.97 -1.94,-7.88 -7.2,-6.34 -9.55,-11.32l0.02 -19.54c41.55,2.25 41.45,63.64 5.77,68.16 -6.76,0.85 -12.67,-0.68 -17.08,-3.18 -7.03,-3.98 -6.53,-6.82 -10.95,-10.86 -14.81,31.9 -50.01,21.47 -60.98,0.53 -11.18,-21.37 -4.41,-57.41 32.69,-59.36 0.61,29.36 2.39,19.72 -8.56,25.51 -20.28,10.74 0.94,44.31 19.12,26.45 9.8,-9.62 3.37,-16.8 9.08,-20.91zm19.9 -81.38c1.71,19.7 -5.92,32.43 -18.96,38.7 -15.46,7.44 -32.41,3.82 -43.73,-4.76 -25.12,-19.03 -15.97,-64.04 17.52,-69.06 0,22.44 2.08,20.33 -4.34,26.16 -14.35,13.04 -2.15,33.56 16.81,28.96 8.39,-2.04 15.27,-11.03 10.29,-21.44 -6.55,-13.67 -6.19,4.51 -1.43,-25.17l63.69 14.27 -0.3 53.31 -20.43 0 -0.49 -36.89 -18.63 -4.08zm-73.79 -120.38c15.21,0 13.97,2.13 30.5,19.59 8.16,8.61 16.29,15.98 25.77,24.51 28.62,25.76 46.05,2.06 36.28,-11.68 -4.56,-6.41 -7.85,-4.94 -16.51,-8l-0.07 -21.08c40.62,-2.51 54.37,49.93 25.01,69.4 -34.25,22.7 -72.5,-28.43 -80.47,-32.35l-0.26 38.94 -20.62 0.06 0.37 -79.39zm-0.14 -84.58c13.24,-0.09 11.59,0.1 18.51,7.11l38.01 36.83c35.12,31.81 57.07,-13.37 19.61,-19.44l0.01 -21.17c41.02,-2.42 54.25,50.81 24.95,69.3 -15.8,9.97 -33.82,4.68 -47.2,-3.97 -17.38,-11.22 -23.27,-22.23 -33.22,-28.37l-0.33 39.03 -20.55 0.03 0.21 -79.35zm23.37 -84.59c18.41,-0.44 17.56,-2.16 30.17,6.36 9.37,6.33 62.37,40.51 63.07,43.69l-0.08 21.32 -72.67 0.5 -0.14 9.56 -20.7 -0.15 -0.45 -9.8 -22.84 -0.1 0.39 -22.39 22.76 -0.6 0.49 -48.39zm8.39 -92.83l20.01 -0.01 0.03 34.92 -0.21 5.14 -19.8 -0.05 -0.03 -40zm52 -75.51c3.93,-4.45 15.54,-11.93 9.89,-22.41 -9.53,-17.71 -32.49,34.38 -56.3,40.22 -20.86,5.11 -37.38,-9.4 -39.91,-27.62 -2.93,-21.03 10.03,-39.71 24.69,-43.21 2.78,2.99 9.79,14.61 11.06,18.72 -27.72,14.41 -10.58,40.38 4.45,26.51 11.12,-10.27 20.04,-26.07 32.79,-34.69 17.9,-12.11 37.42,-3.28 43.83,12.88 7.79,19.62 -5.87,42.74 -17.85,46.03 -3,-4.98 -11.28,-12.6 -12.65,-16.43zm29.79 -135.55l-68.87 45.39c-1.55,1.38 -0.8,0.66 -2.01,2.38l71.02 0.22 -0.09 22.28 -113.77 -0.01 0.06 -21.96 36.59 -23.54c6.71,-4.46 12.02,-7.78 18.6,-12.05 5.55,-3.6 12.32,-8.83 16.62,-11.59l-71.95 -0.06 0.23 -22.46 113.79 0.36 -0.22 21.04zm0.17 -99.42l-0.04 22.44 -113.93 43.27 0.34 -23.35c5.58,-1.47 18.39,-6.34 22.84,-8.86l-0.06 -44.84 -18.14 -7.42c-4.68,-2.06 -3.08,-0.29 -4.98,-3.91l0.04 -13.47c17.29,0 18.86,-1.01 33.46,4.76 21.47,8.5 64.36,23.75 80.47,31.38zm-241.27 -88.92l0 1101.74c0,9.43 3.63,15.94 8.26,21.18 4.11,4.66 12.97,9.49 21.18,9.49l311.63 0c13.26,0 28.22,-13.71 28.22,-26.99l0 -1106.65c0,-13.5 -13.49,-26.99 -26.99,-26.99l-315.31 0c-13.9,0 -26.99,14.21 -26.99,28.22z"/>
   <path class="fil1" d="M4559.46 486.67l-77.29 0 0 -101.83 83.42 0c26.94,0 58.89,14.71 58.89,44.17 0,19.31 -1.22,33.7 -20.15,46.1 -9.96,6.52 -28.74,11.56 -44.87,11.56zm-255.19 -247.83l0 522.65c0,2.83 0.85,3.68 3.68,3.68l170.54 0c2.82,0 3.68,-0.85 3.68,-3.68l0 -147.22c38,0 34.68,-3.44 42.21,8.09l31.75 47.99c4.68,6.62 8.03,12.48 12.81,19.09l37.88 57.82c3.27,4.92 10.52,17.91 13.98,17.91l196.31 0c4.69,0 3.16,-1.43 2.39,-3.41l-113.3 -165.41c-4.41,-6.32 -6.39,-6.91 -6.88,-12.76 4.74,-1.1 17.23,-8.58 21.61,-11.52 67.27,-45.23 94.47,-110.91 76.25,-197.98 -2.36,-11.28 -9.17,-30.37 -14.66,-39.32 -1.8,-2.93 -2.55,-4.84 -4.27,-8l-17.25 -23.24c-37.96,-39.41 -71.12,-51.73 -124.13,-62.35 -21.37,-4.28 -53.21,-6.02 -74.96,-6.02l-253.96 0c-2.83,0 -3.68,0.85 -3.68,3.68z"/>
   <path class="fil3" d="M1113.15 1243.66l463.76 0 12.79 -163.89c3.76,-25.86 5.3,-81.73 8.96,-108.82l12.6 -164.07c0.43,-8.56 2.17,-17.67 2.46,-26.98l4.57 -54.33c1.31,-9.99 0.62,-17.42 2.08,-27.36 1.31,-8.88 1.68,-18.3 1.9,-27.54l6.69 -81.65c1.37,-9.5 1.08,-17.63 2.12,-27.33 2.37,-22.12 4.31,-62.99 6.84,-81.49l6.47 -108.86c-7.48,32.1 -48.52,117.9 -65.84,152.55 -14.61,29.21 -33.28,64.95 -49.43,92.88 -11.69,20.24 -28.03,51.21 -40.31,70.11l-20.57 34.64c-26.69,45.43 -71.67,116.91 -101.37,161.18 -1.74,2.59 -2.55,4 -4.26,6.79l-119.64 176.04c-6.08,8.95 -12.27,17.09 -18.17,26 -29.06,43.91 -70.29,96.66 -102.37,139.32 -3.46,4.61 -6.77,8.07 -9.28,12.81z"/>
   <path class="fil4" d="M2838.15 1215.44c0,6.48 13.89,3.68 31.9,3.68 5.59,0 3.71,-8.71 3.68,-14.72l0 -293.23c5.56,3.73 54.37,84.24 61.58,95.46l61.35 96.92c4.48,6.62 7.92,12.88 12.26,19.64l55.67 87.87c1.88,3.16 3.7,8.06 7.89,8.06l40.49 0 0 -361.93c-44.03,0 -35.58,-7.47 -35.58,34.35l0 271.14 -12.21 -18.46c-4.12,-6.88 -8.28,-12.63 -12.39,-19.51 -21.37,-35.81 -51.78,-78.99 -73.62,-115.32l-91.7 -143.86c-1.8,-2.72 -4.21,-8.34 -7.61,-8.34l-41.71 0 0 358.25z"/>
   <path class="fil4" d="M3541.15 881.73c43.37,0 76.49,18.18 102.21,48.69 21.41,25.4 35.2,64.14 35.2,98.53 0,51.35 -6.94,81.62 -36.98,118.84 -4.17,5.17 -7.96,9.68 -13.14,13.85 -11.17,8.99 -19.73,14.98 -33.71,21.5 -12.93,6.02 -26.38,8.97 -43.67,10.31 -78.16,6.06 -135.13,-48.97 -146.81,-125.75 -6.99,-46.03 1.63,-91.08 27.44,-129.8 2.58,-3.87 3.22,-4.15 6.02,-7.48 26.78,-31.77 60.52,-48.69 103.44,-48.69zm-176.67 157.04c0,32.69 7.53,65.55 20.04,90.38l16.41 27.76c23.14,30.71 53.92,55.17 92.37,64.66 43.79,10.82 85.31,8.25 125.57,-11.84 12.01,-6 35.93,-23.03 44.69,-32.61 2.57,-2.81 2.87,-3.99 5.48,-6.78 60.59,-64.75 62.61,-183.02 9.88,-253.4 -2.06,-2.76 -2.72,-3.58 -4.95,-6.08 -25.58,-28.64 -52.66,-49.32 -91.8,-57.88 -11.63,-2.55 -29.16,-5.2 -41.09,-5.55 -5.1,-0.15 -4.21,0.89 -9.75,1.17 -46.58,2.35 -90.31,22.22 -120.35,57.55 -0.16,0.19 -0.4,0.47 -0.56,0.66l-2.25 2.66c-1.98,2.41 -2.93,3.78 -4.78,6.26 -3.84,5.13 -6.26,8.28 -9.54,13.77 -19.95,33.44 -29.37,66.12 -29.37,109.27z"/>
   <path class="fil4" d="M2628.35 881.73c11.57,0 23.04,1.57 32.24,3.33 27.95,5.37 60.37,27.16 76.24,50.13 2.82,4.08 4.62,6.91 7.36,11.05 4.81,7.28 8.53,16.23 12.12,24.69 19.52,46.01 15.12,115.8 -11.15,157.65l-15.5 21.32c-14.11,18.17 -44.14,35.37 -67.46,40.5 -27.71,6.09 -53.06,5.21 -79.41,-4.24 -2.58,-0.92 -4.11,-1.52 -6.15,-2.44 -22.42,-10.19 -41.63,-25.95 -55.93,-45.9 -2.69,-3.76 -4.48,-7.26 -7,-11.41 -20.4,-33.61 -26.42,-82.71 -19.64,-121.32 11.85,-67.53 61.33,-123.36 134.28,-123.36zm-174.22 149.68c0,31.17 3.09,60.28 14.3,85.07 2.49,5.51 4.09,10.57 6.53,15.56 2.48,5.06 5.07,8.95 8.09,14 28.11,47.03 82.94,81.67 140.39,81.67 41.93,0 50.38,-3.75 84.15,-17.68l20.82 -12.31c2.24,-1.48 4.13,-3.07 6.33,-4.71l17.85 -15.28c53.72,-58.71 68.07,-142.52 40,-216.09 -10.65,-27.93 -28.16,-53.74 -50.99,-72.93 -11.85,-9.97 -20.09,-15.62 -34.73,-22.93 -16.62,-8.31 -32.11,-13.34 -51.45,-16.03 -48.72,-6.78 -86.44,3.95 -125.23,29.52 -9.89,6.52 -15.88,12.85 -24.22,21.17 -18.53,18.47 -33.58,44.97 -42.18,70.69 -5.12,15.27 -9.66,43.61 -9.66,60.28z"/>
   <path class="fil4" d="M1940.07 881.73c25.71,0 41.14,5.1 59.61,12.77 48.26,20.01 80.25,83.53 80.25,136.91 0,27.95 -1.95,48 -11.55,73.1 -3.66,9.55 -7.19,16.01 -11.69,23.89 -8.77,15.32 -19.51,27.66 -33.88,38.5 -3.76,2.83 -6.67,5.4 -10.76,7.65 -13.76,7.58 -20.75,12 -38.14,15.84 -27.68,6.11 -53.07,5.22 -79.4,-4.23 -2.58,-0.92 -4.11,-1.52 -6.15,-2.44 -3.22,-1.47 -3.17,-1.72 -6.37,-3.44 -4.66,-2.51 -7.89,-4.05 -11.94,-6.47 -4.57,-2.72 -6.27,-4.59 -10.6,-7.8 -29.08,-21.51 -47.51,-58.5 -53.3,-93.92 -0.72,-4.37 -2.04,-11.33 -2.26,-16.16 -0.31,-7.02 -1.22,-11.55 -1.32,-17.17 -0.27,-15.34 5.34,-49.21 10.75,-62.95 13.54,-34.4 32.89,-62.18 67.43,-79.79 15.5,-7.9 36.54,-14.29 59.32,-14.29zm-174.22 148.45c0,20.11 -0.25,34.5 4.41,54.49l10.32 33.84c7.68,16.98 13.36,27.58 24.18,42.07 29.01,38.88 78.45,67.13 130.4,67.13 42.18,0 50.43,-3.78 84.15,-17.68 7.12,-2.94 22.12,-12.93 27.79,-17.61 4.23,-3.49 8.02,-7.1 11.98,-10.11 5.83,-4.44 6.43,-7.09 11.33,-11.98 30.53,-30.48 47.56,-87.94 47.56,-132.79 0,-47.36 -14.64,-90.76 -42.22,-125.86 -2.26,-2.87 -3.55,-3.94 -5.63,-6.65 -3.19,-4.14 -6.62,-7.7 -10.75,-11.33 -26.07,-22.96 -56.82,-39.02 -92.23,-43.95 -32.75,-4.56 -66.46,-0.75 -96.19,13.16 -3.15,1.48 -4.72,1.74 -7.78,3.26 -3.22,1.62 -3.66,2.3 -6.95,4.09 -16.08,8.75 -25.76,17.41 -38.53,30.18 -19.75,19.73 -24.65,31.92 -35.89,54.9 -9.11,18.63 -15.95,52.25 -15.95,74.84z"/>
   <path class="fil4" d="M2256.6 1184.77l-71.15 0 0 -293.23 79.74 0c27.94,0 58.21,11.92 79.04,26.48 7.44,5.2 12.54,10.55 18.81,16.77 10.42,10.32 22.35,28.03 27.76,43.39 3.54,10.05 5.57,16.5 8.14,27.45 7.75,33.13 2.42,61.97 -8.12,92.51 -1.7,4.93 -3.45,8.26 -5.8,12.61 -25.64,47.56 -72.27,74.02 -128.42,74.02zm-106.73 30.67c0,2.82 0.85,3.68 3.68,3.68l106.74 0c100.01,0 179.12,-75.31 179.12,-175.45 0,-36.89 -3.84,-65.45 -22.02,-96.98 -6.39,-11.09 -8.78,-16.16 -17.61,-26.56l-21.44 -21.5c-13.61,-11.83 -25.08,-17.73 -40.74,-25.51 -18.2,-9.05 -50.18,-15.93 -72.41,-15.93l-115.32 0 0 358.25z"/>
   <path class="fil4" d="M3125.24 887.86c0,2.83 0.85,3.68 3.68,3.68l107.96 0 0 323.9c0,2.82 0.86,3.68 3.68,3.68l31.9 0 0 -327.58 109.19 0c2.83,0 3.68,-0.85 3.68,-3.68l0 -30.67 -260.09 0 0 30.67z"/>
   <path class="fil3" d="M534.06 336.99l2.51 -6.09c0.69,-2.62 1.11,-4.9 1.97,-7.84 10.08,-34.83 22.81,-60.02 42.63,-89.87l15.78 -21.03c19.59,-21.87 32.49,-37.39 57.34,-56.76 6.99,-5.44 13.31,-10.97 20.86,-15.94 21.65,-14.23 47.42,-32.36 71.18,-42.92l25.28 -11.52c9.73,-3.39 17.44,-7.75 27.29,-10.75l52.25 -14c4.75,-1.19 3.71,-0.31 6.81,-3.01l-52.93 2.28c-6.14,0.69 -13.23,-0.17 -19.46,0.17l-161.95 7.36c-8.11,-0.04 -12.06,0.9 -18.39,1.24 -21.57,1.16 -19.5,-5.94 -23.81,14.23 -2.3,10.77 -3.66,20.66 -5.74,31.06l-18.2 95.9c-4.23,21.26 -8.23,40.93 -11.85,62.99 -2.66,16.25 -11.57,51.74 -11.57,64.5z"/>
   <path class="fil3" d="M1219.89 604.45c9.83,0 11.06,-3.02 16.26,-8.27 16.54,-16.73 19.41,-25.85 30.6,-44.25 6.67,-10.96 18.69,-36.36 23.95,-49.66 20.16,-50.99 44.81,-121.68 29.79,-186.14 -13.93,7.38 -59.79,72.19 -69.09,87.95 -31.34,53.08 -65.79,129.68 -35.62,190.98 1.83,3.72 3.17,5.34 4.11,9.39z"/>
   <path class="fil1" d="M4980.28 416.74c-26.77,0 -51.51,-11.14 -64.33,-26.46 -17.21,-20.57 -26.46,-33.08 -26.46,-66.78 0,-11.91 4.12,-27.64 8.15,-36.02 24.8,-51.56 91.15,-67.7 132.79,-36.22 10.02,7.57 15.39,12.11 22.75,22.65 42.59,60.97 -1.65,142.83 -72.9,142.83zm-106.74 -94.47c0,18.21 2.19,33.99 9.4,48.27 3.08,6.1 5.54,11.13 9.33,16.43 11.44,16 25.6,27.7 43.41,36.33 27.04,13.11 58.84,11.77 86.16,0.64 16.78,-6.83 20.85,-12.83 31.56,-21.19 6.48,-5.06 17.78,-21.74 21.77,-29.76 34.22,-68.57 -17.65,-152.55 -88.76,-152.55 -35.11,0 -56.63,5.72 -81.89,30.98 -18.27,18.26 -30.98,42.59 -30.98,70.85z"/>
   <path class="fil5" d="M179.2 292.06l71.95 0.06c-4.3,2.76 -11.07,7.99 -16.62,11.59 -6.58,4.27 -11.89,7.59 -18.6,12.05l-36.59 23.54 -0.06 21.96 113.77 0.01 0.09 -22.28 -71.02 -0.22c1.21,-1.72 0.46,-1 2.01,-2.38l68.87 -45.39 0.22 -21.04 -113.79 -0.36 -0.23 22.46z"/>
   <path class="fil1" d="M4961.88 323.5l-3.68 0 0 -41.72c10.24,0 27.07,-0.13 35.51,2.52 12.8,4.02 12.33,10.88 12.33,22.02 0,8.6 -7.47,13.64 -15.37,15.3 -7.1,1.49 -20.73,1.88 -28.79,1.88zm-25.77 60.11l22.09 0 0 -45.39c23.96,0 46.7,-2.33 47.87,24.51 0.15,3.59 -0.21,7.49 -0.03,11.07 0.28,5.49 1.11,4.47 1.23,9.81l20.86 0c-4.15,-8.65 -0.72,-24.18 -3.89,-34.15 -2.37,-7.48 -10.14,-17.83 -19.42,-18.6l0 -2.46c28.17,-0.63 41.57,-61.34 -20.86,-61.34l-47.85 0 0 116.55z"/>
   <path class="fil5" d="M224.05 188.83c3.96,0.31 33.46,11.96 36.26,14.24 -5.77,2.55 -31.39,13.11 -36.24,13.43l-0.02 -27.67zm-44.85 -19.92c1.9,3.62 0.3,1.85 4.98,3.91l18.14 7.42 0.06 44.84c-4.45,2.52 -17.26,7.39 -22.84,8.86l-0.34 23.35 113.93 -43.27 0.04 -22.44c-16.11,-7.63 -59,-22.88 -80.47,-31.38 -14.6,-5.77 -16.17,-4.76 -33.46,-4.76l-0.04 13.47z"/>
   <path class="fil5" d="M223.26 620.1c6.56,3.21 30.03,18.92 34.57,23.66l-34.56 0.05 -0.01 -23.71zm-20.93 23.18l-22.76 0.6 -0.39 22.39 22.84 0.1 0.45 9.8 20.7 0.15 0.14 -9.56 72.67 -0.5 0.08 -21.32c-0.7,-3.18 -53.7,-37.36 -63.07,-43.69 -12.61,-8.52 -11.76,-6.8 -30.17,-6.36l-0.49 48.39z"/>
   <path class="fil5" d="M179.24 758.83l20.55 -0.03 0.33 -39.03c9.95,6.14 15.84,17.15 33.22,28.37 13.38,8.65 31.4,13.94 47.2,3.97 29.3,-18.49 16.07,-71.72 -24.95,-69.3l-0.01 21.17c37.46,6.07 15.51,51.25 -19.61,19.44l-38.01 -36.83c-6.92,-7.01 -5.27,-7.2 -18.51,-7.11l-0.21 79.35z"/>
   <path class="fil5" d="M179.22 843.45l20.62 -0.06 0.26 -38.94c7.97,3.92 46.22,55.05 80.47,32.35 29.36,-19.47 15.61,-71.91 -25.01,-69.4l0.07 21.08c8.66,3.06 11.95,1.59 16.51,8 9.77,13.74 -7.66,37.44 -36.28,11.68 -9.48,-8.53 -17.61,-15.9 -25.77,-24.51 -16.53,-17.46 -15.29,-19.59 -30.5,-19.59l-0.37 79.39z"/>
   <path class="fil5" d="M253.38 884.44l18.63 4.08 0.49 36.89 20.43 0 0.3 -53.31 -63.69 -14.27c-4.76,29.68 -5.12,11.5 1.43,25.17 4.98,10.41 -1.9,19.4 -10.29,21.44 -18.96,4.6 -31.16,-15.92 -16.81,-28.96 6.42,-5.83 4.34,-3.72 4.34,-26.16 -33.49,5.02 -42.64,50.03 -17.52,69.06 11.32,8.58 28.27,12.2 43.73,4.76 13.04,-6.27 20.67,-19 18.96,-38.7z"/>
   <path class="fil5" d="M233.48 965.82c-5.71,4.11 0.72,11.29 -9.08,20.91 -18.18,17.86 -39.4,-15.71 -19.12,-26.45 10.95,-5.79 9.17,3.85 8.56,-25.51 -37.1,1.95 -43.87,37.99 -32.69,59.36 10.97,20.94 46.17,31.37 60.98,-0.53 4.42,4.04 3.92,6.88 10.95,10.86 4.41,2.5 10.32,4.03 17.08,3.18 35.68,-4.52 35.78,-65.91 -5.77,-68.16l-0.02 19.54c2.35,4.98 7.61,3.44 9.55,11.32 1.64,6.67 -1.11,12.4 -5.44,13.97 -15.15,5.5 -17.13,-14.59 -17.57,-15.48 -2.16,-4.38 -1.6,-3.01 -17.43,-3.01z"/>
   <path class="fil5" d="M231.37 1113.58c-0.18,9.39 -2.27,16.17 -7.67,20.92 -13.34,11.72 -32.36,-3.39 -25,-20.08 4.16,-9.44 11.84,-6.07 15.56,-11.86l-0.4 -20.73c-38.26,3.11 -43.81,38.87 -32.2,60.28 12.74,23.49 48.44,27.28 60.37,-1.4 3.59,3.22 9.91,16.6 27.78,14.14 38.18,-5.25 33.13,-68.11 -5.43,-68.08l-0.01 21.03c28.92,14.76 -11.09,44.15 -13.38,5.33l-19.62 0.45z"/>
   <path class="fil5" d="M263.21 426.55c1.37,3.83 9.65,11.45 12.65,16.43 11.98,-3.29 25.64,-26.41 17.85,-46.03 -6.41,-16.16 -25.93,-24.99 -43.83,-12.88 -12.75,8.62 -21.67,24.42 -32.79,34.69 -15.03,13.87 -32.17,-12.1 -4.45,-26.51 -1.27,-4.11 -8.28,-15.73 -11.06,-18.72 -14.66,3.5 -27.62,22.18 -24.69,43.21 2.53,18.22 19.05,32.73 39.91,27.62 23.81,-5.84 46.77,-57.93 56.3,-40.22 5.65,10.48 -5.96,17.96 -9.89,22.41z"/>
   <path class="fil4" d="M4071.16 1063.3l-39.26 0 0 -45.39c35.47,0 63.8,-5.83 63.8,25.76 0,10.63 -13.44,19.63 -24.54,19.63zm-49.07 51.53c7.86,1.89 2.37,1.74 9.81,0l0 -42.94 30.67 0c3.44,0 6.82,5.82 10.36,10.51 3.32,4.4 5.67,7.57 8.92,11.93l13.77 18.13c2.7,3.23 19.45,9.74 6.76,-6.75 -6.72,-8.74 -22.5,-27.84 -26.31,-35.04 4.75,-2.29 29.44,-5.69 29.44,-30.68 0,-37.88 -54.67,-30.67 -79.74,-30.67 -4.97,0 -3.84,4.54 -3.76,9.75l0.08 95.76z"/>
   <path class="fil4" d="M3948.47 928.35l-31.9 0 0 -46.62c22.34,0 63.8,-4.38 63.8,20.85l0 6.14c0,12.96 -18.01,19.63 -31.9,19.63zm-41.71 -53.99l-0.04 94.52c-0.16,9.54 -1.32,11 6.17,11 2.83,0 3.68,-0.86 3.68,-3.68l0 -39.26 34.36 0c1.15,4.3 0.68,2.14 3.25,5.33l28.65 37.61 9.81 0c-0.47,-5.71 -10.15,-15.56 -15.42,-22.61 -3.21,-4.29 -5.36,-6.89 -8.6,-11.04 -2.54,-3.24 -6.91,-8.12 -7.88,-11.75 35.36,-2.94 50.31,-61.34 -18.4,-61.34 -7.92,0 -29.97,-0.95 -35.58,1.22z"/>
   <path class="fil4" d="M4384.02 1112.38c0,2.83 0.85,3.68 3.68,3.68 7.12,0 4.92,-11.5 4.9,-18.4l0 -72.39c3.25,2.18 6.88,7.83 9.65,11.22l19.64 24.52c3.28,4.12 6.26,8.48 9.7,12.39 4,4.54 30.4,41.24 35.15,42.28 3.43,0.75 5.61,-1.36 5.61,-4.53l0 -98.15c0,-4.16 -2.15,-3.68 -6.13,-3.68 -5.99,0 -3.69,12.67 -3.68,18.41l0 69.93c-9.51,-6.37 -66.42,-88.34 -73.62,-88.34l-4.9 0 0 103.06z"/>
   <path class="fil4" d="M4510.38 880.5c9.68,0 13.6,0.3 22.45,4.55 32.02,15.37 32.04,69.88 -1.18,84.19 -8.99,3.87 -16.66,4.58 -27.23,3.12 -21.35,-2.94 -42.78,-30.09 -32.55,-62.9 4.44,-14.22 20.47,-28.96 38.51,-28.96zm-50.3 41.71c0,19.55 1.91,28.35 13.85,42.59 11.97,14.27 26.51,16.3 43.82,16.3 34.85,0 68.86,-49.23 34.55,-92.21 -20.85,-26.11 -70.44,-22.45 -86.93,12.84 -2.39,5.11 -5.29,13.59 -5.29,20.48z"/>
   <path class="fil4" d="M4727.54 1015.46c56.88,0 60.55,93.24 0,93.24 -31,0 -51.53,-30.73 -40.06,-64.6 2.51,-7.38 6.09,-11.6 11.32,-16.89 6.52,-6.59 19.87,-11.75 28.74,-11.75zm-52.75 42.94c0,18.59 2.54,30.14 16.24,43.87 32.46,32.54 90.5,9.84 90.5,-40.19 0,-16.93 -6.77,-29.14 -15.48,-38.51 -0.18,-0.18 -0.42,-0.45 -0.59,-0.63 -0.18,-0.19 -0.43,-0.45 -0.61,-0.63 -0.17,-0.18 -0.43,-0.43 -0.61,-0.61 -21.31,-20.6 -59.04,-16.46 -74.23,1.61 -6.85,8.14 -15.22,20.87 -15.22,35.09z"/>
   <path class="fil4" d="M4004.91 927.12c0,-35.45 33.34,-56.87 64.16,-42.07 38.74,18.6 29.02,89.4 -19.84,88.19 -26.61,-0.65 -44.32,-22.4 -44.32,-46.12zm-8.59 -6.13c0,18.56 1.08,30.64 14.39,44.5 25.76,26.86 74.77,18.67 87.62,-17.34 1.73,-4.85 4.94,-15.32 4.56,-22.07 -3.08,-54.69 -61.57,-69.32 -91.73,-38.11 -7.82,8.1 -14.84,21.37 -14.84,33.02z"/>
   <path class="fil4" d="M4115.33 1013l0 99.38c0,5.68 9.79,3.7 15.95,3.68l60.12 0c0.53,-2.22 3.74,-8.59 -2.46,-8.59l-63.8 0 0 -41.71 60.12 0c0,-5.97 0.83,-8.59 -3.68,-8.59l-56.44 0 0 -39.26 66.26 0 0 -8.59 -72.39 0c-2.83,0 -3.68,0.86 -3.68,3.68z"/>
   <path class="fil4" d="M3822.11 1013l0 99.38c0,2.83 0.85,3.68 3.68,3.68l68.7 0c2.87,0 4.91,-2.04 4.91,-4.91 0,-6.14 -20.26,-3.68 -31.9,-3.68 -11.86,0 -23.72,0 -35.58,0 -2.57,-11.01 -1.23,-26.31 -1.23,-38.03 0,-6.15 20.26,-3.68 31.9,-3.68 6.15,0 12.3,-0.06 18.45,0.04 9.93,0.17 11,1.93 11,-7.4 -11.71,-2.73 -47.08,-1.23 -61.35,-1.23l0 -35.58c0,-2.83 0.86,-3.68 3.68,-3.68l63.8 0 0 -8.59 -72.38 0c-2.83,0 -3.68,0.86 -3.68,3.68z"/>
   <path class="fil4" d="M4186.49 876.82l0 103.06 76.06 0 0 -8.59 -67.47 0 0 -40.49 60.11 0 0 -8.59 -56.43 0c-2.83,0 -3.68,-0.85 -3.68,-3.68l0 -33.12c0,-2.83 0.85,-3.68 3.68,-3.68l63.79 0c0,-5.97 0.83,-8.59 -3.68,-8.59l-68.7 0c-2.83,0 -3.68,0.85 -3.68,3.68z"/>
   <path class="fil4" d="M4298.13 1112.38c0,2.83 0.86,3.68 3.68,3.68l68.71 0c4.51,0 3.68,-2.62 3.68,-8.59l-63.8 0c-2.82,0 -3.68,-0.85 -3.68,-3.68l0 -34.35c0,-2.83 0.86,-3.68 3.68,-3.68l56.44 0c0,-5.97 0.83,-8.59 -3.68,-8.59l-56.44 0c0,-45.72 -3.62,-39.37 14.72,-39.26l36.81 0c9.14,0.03 15.95,2.29 15.95,-4.91 0,-2.82 -0.85,-3.68 -3.68,-3.68l-72.39 0 0 103.06z"/>
   <path class="fil4" d="M4626.94 1020.36c3,12.89 24.34,48.91 24.54,57.67l-51.53 0c1.19,-5.13 4.15,-10.38 6.11,-14.75 3.06,-6.81 17.05,-40.11 20.88,-42.92zm-47.85 95.7c4.97,0 9.11,-13.81 12.29,-20.83 1.48,-3.27 2.74,-4.65 3.66,-8.62l61.34 0c5.98,11.3 10.64,29.45 18.41,29.45 7.5,0 0.99,-8.97 -0.42,-11.85l-31.88 -69.95c-5.31,-11.45 -10.14,-26.17 -16.78,-26.17 -5.45,0 -12.39,19.45 -15.54,26.18l-36.15 78.13c-0.58,2.55 -1.62,0.71 0.37,2.47 1.23,1.1 2.16,1.19 4.7,1.19z"/>
   <path class="fil4" d="M4409.78 885.41l20.87 41.69c2.41,5.4 4.57,8.07 6.12,14.74l-51.53 0 24.54 -56.43zm-51.53 94.47l8.59 0 13.5 -29.45 61.34 0c0.96,4.14 1.34,3.45 3.03,6.79l10.47 22.66 8.58 0c-0.47,-5.68 -35.5,-79.24 -41.73,-93.23 -2.02,-4.56 -4.88,-8.22 -6.12,-13.51l-8.58 0 -49.08 106.74z"/>
   <path class="fil4" d="M3973.01 1068.21l-25.76 0 0 -50.3c20.42,0 60.93,-5.28 59.94,25.68 -0.53,16.39 -17.19,24.62 -34.18,24.62zm-35.58 44.17c0,6.11 9.82,4.39 9.82,-1.23l0 -34.35c20.49,0 52.67,2.73 64.25,-17.95 11.66,-20.84 1.48,-49.53 -37.26,-49.53l-36.81 0 0 103.06z"/>
   <path class="fil4" d="M4267.46 920.99c0,16.35 0.75,30.88 14.39,44.5 7.4,7.38 17.92,14.53 31.01,15.61 -1.91,7.13 -8.04,9.55 -9.82,17.18 3.59,0.84 5.68,2.14 8.59,3.68 2.96,-4.42 5.37,-8.92 7.66,-14.42 4.02,-9.69 4.11,-5.04 14.48,-7.61 9.48,-2.34 23.54,-10.32 28.16,-17.23l-4.63 -5.18c-7.16,2.3 -18.22,18.48 -41.11,15.44 -55.08,-7.33 -53,-92.46 6.48,-92.46 19.62,0 27.04,13.1 33.13,14.72 3.99,-2.67 2.73,-2.02 4.91,-6.13 -10,-14.92 -39.17,-22.46 -61.71,-12.63 -16.4,7.14 -31.54,25.42 -31.54,44.53z"/>
   <path class="fil4" d="M4482.17 1058.4c0,17 2.06,29.74 14.39,42.04 6.14,6.12 12.58,11.43 21.43,14.15 3.75,1.15 6.49,1.22 9.57,2.7 -1.31,4.91 -5.76,8.29 -9.81,15.95 3.32,1.75 5.24,3.3 9.81,3.68 0.87,-3.25 4.94,-9.88 6.89,-13.97 3.88,-8.18 4.89,-5 14.67,-7.41 11.4,-2.81 20.89,-9.67 27.52,-16.66 -2.04,-3.85 -2.67,-6.97 -7.18,-4.79 -2.83,1.36 -5.57,4.8 -8.98,7.04 -30.31,19.92 -68.5,-1.81 -68.5,-34.14l0 -9.82c0,-29.48 36.04,-54.9 68.73,-33.15 3.74,2.49 6.51,5.19 9.79,7.39 2.54,-3.8 3.67,-2.73 4.91,-7.37 -4.78,-6.52 -22.65,-15.95 -34.35,-15.95 -22.34,0 -35.74,3.62 -49.27,21.89 -4.55,6.15 -9.62,19.39 -9.62,28.42z"/>
   <path class="fil4" d="M3861.37 932.03c-17.69,0 -30.68,2.72 -30.68,-3.68l0 -42.94c0,-5.76 7.54,-3.68 22.09,-3.68 10.96,0 27.61,1.79 33.88,10.28 9.35,12.67 5.18,40.02 -25.29,40.02zm-39.26 -55.21l0 99.38c0,4.51 2.61,3.68 8.58,3.68 0,-47.03 -6.27,-39.37 23.32,-39.26 10.56,0.04 15.61,-0.36 23.81,-3.18 29.72,-10.18 28.1,-46.05 8.52,-57.38 -15.12,-8.75 -41.2,-6.92 -60.55,-6.92 -2.83,0 -3.68,0.85 -3.68,3.68z"/>
   <path class="fil4" d="M4238.02 1116.06l8.59 0c0.98,-4.23 3.39,-9.1 5.31,-13.08l40.08 -93.66 -8.59 0c-7.21,13.63 -27.4,63.72 -35.54,82.24 -1.46,3.32 -4.16,8.87 -4.95,12.23 -3.3,-2.42 -17.82,-39.8 -20.87,-46.6 -6.95,-15.44 -13.1,-33.25 -20.84,-47.87l-8.59 0c0.38,4.56 3.3,9.96 4.88,13.53l40.52 93.21z"/>
   <path class="fil4" d="M4096.93 876.82l0 4.91 33.12 0c2.83,0 3.68,0.85 3.68,3.68l0 94.47 8.59 0 0 -94.47c0,-2.83 0.85,-3.68 3.68,-3.68l33.13 0c0,-5.97 0.83,-8.59 -3.68,-8.59l-74.84 0c-2.83,0 -3.68,0.85 -3.68,3.68z"/>
   <polygon class="fil5" points="211.24,542.06 231.04,542.11 231.25,536.97 231.22,502.05 211.21,502.06 "/>
   <polygon class="fil5" points="211.54,1068.11 231.21,1068.12 230.7,1028.06 211.27,1028.11 "/>
   <path class="fil2" d="M224.07 216.5c4.85,-0.32 30.47,-10.88 36.24,-13.43 -2.8,-2.28 -32.3,-13.93 -36.26,-14.24l0.02 27.67z"/>
   <path class="fil2" d="M223.27 643.81l34.56 -0.05c-4.54,-4.74 -28.01,-20.45 -34.57,-23.66l0.01 23.71z"/>
   <path class="fil4" d="M4617.12 984.78c-8.64,0 -10.66,7.59 -13.49,13.5 2.87,1.52 3.19,2.11 7.36,2.45 4.94,-18.52 22.7,8.45 33.95,-5.3 2.33,-2.85 3.72,-6.29 4.08,-10.65 -3.8,-0.32 -2.32,0.02 -4.9,-1.22 -4.75,3.47 -3.64,8.18 -11.31,6.54 -5.99,-1.28 -9.37,-5.32 -15.69,-5.32z"/>
   <path class="fil4" d="M4388.92 863.32c2.89,0.68 3.63,1.15 7.37,1.23 3.52,-13.21 11.23,-1.23 28.21,-1.23 3.75,0 9.43,-7.58 9.36,-11.53 -0.18,-9.8 -11.04,2.95 -11.81,2.95 -11.11,0 -27.19,-16.9 -33.13,8.58z"/>
  </g>
 </g>
</svg>
