<?xml version="1.0" encoding="iso-8859-1"?>
<!-- Generator: Adobe Illustrator 19.0.0, SVG Export Plug-In . SVG Version: 6.00 Build 0)  -->
<svg version="1.1" id="Capa_1" xmlns="http://www.w3.org/2000/svg" xmlns:xlink="http://www.w3.org/1999/xlink" x="0px" y="0px"
	 viewBox="0 0 495.95 495.95" style="enable-background:new 0 0 495.95 495.95;" xml:space="preserve">
<path style="fill:#FCA7CA;" d="M411.007,372.07c-1.784-7.12-8.184-12.12-15.528-12.12h-59.504h-176h-59.504
	c-7.344,0-13.744,5-15.52,12.12L55.975,487.95h384L411.007,372.07z"/>
<polygon style="fill:#FD79A8;" points="55.975,487.95 439.975,487.95 431.975,455.95 63.975,455.95 "/>
<path style="fill:#ECECEC;" d="M324.831,103.95L324.831,103.95c-15.544,0-30.504,5.112-43.392,13.808
	c-7.92,5.336-19.072,10.192-33.464,10.192s-25.544-4.856-33.464-10.192c-12.888-8.696-27.848-13.808-43.392-13.808l0,0
	c-41.504,0-75.144,33.64-75.144,75.144v22.992c0,45.176,15.632,88.96,44.24,123.928l0,0c18.28,22.344,31.392,48.456,38.392,76.464
	l9.968,39.856c2,8,9.184,13.608,17.432,13.608l0,0c9.92,0.008,17.968-8.04,17.968-17.96V335.95c0-13.256,10.744-24,24-24l0,0
	c13.256,0,24,10.744,24,24v102.032c0,9.92,8.048,17.968,17.968,17.968l0,0c8.248,0,15.432-5.608,17.432-13.608l9.968-39.856
	c7-28.008,20.112-54.12,38.392-76.464l0,0c28.608-34.968,44.24-78.752,44.24-123.936v-22.992
	C399.975,137.59,366.335,103.95,324.831,103.95z"/>
<path style="fill:#B6C1CE;" d="M247.975,279.95c-57.744,0-110.128-16.184-148.696-42.472c5.944,32.304,19.896,62.816,40.936,88.536
	c18.28,22.344,31.392,48.456,38.392,76.464l9.968,39.856c2,8,9.184,13.608,17.432,13.608c9.92,0.008,17.968-8.04,17.968-17.96
	V335.95c0-13.256,10.744-24,24-24c13.256,0,24,10.744,24,24v102.032c0,9.92,8.048,17.968,17.968,17.968
	c8.248,0,15.432-5.608,17.432-13.608l9.968-39.856c7-28.008,20.112-54.12,38.392-76.464c21.04-25.72,34.992-56.232,40.936-88.536
	C358.103,263.766,305.719,279.95,247.975,279.95z"/>
<g>
	<path style="fill:#B27946;" d="M359.975,191.95v24l-16,16v32h24l15.792,15.792c10.544-24.352,16.208-50.736,16.208-77.656v-22.992
		c0-1.048-0.112-2.072-0.16-3.112c-2.616-0.008-5.184-0.032-7.84-0.032L359.975,191.95z"/>
	<polygon style="fill:#B27946;" points="135.975,199.95 159.975,199.95 167.975,215.95 183.975,215.95 183.975,239.95 
		167.975,247.95 167.975,263.95 143.975,263.95 143.975,239.95 127.975,231.95 	"/>
</g>
<path d="M418.767,370.126c-2.672-10.696-12.248-18.176-23.288-18.176h-48.264c4.448-7.28,9.328-14.28,14.712-20.864
	c29.696-36.296,46.048-82.104,46.048-128.992v-23c0-45.848-37.296-83.144-83.144-83.144c-16.6,0-33.152,5.248-47.864,15.168
	c-8.68,5.864-18.44,8.832-28.992,8.832s-20.312-2.968-28.992-8.832c-14.712-9.92-31.264-15.168-47.864-15.168
	c-45.848,0-83.144,37.296-83.144,83.144v23c0,46.888,16.352,92.704,46.048,129c5.384,6.584,10.264,13.584,14.712,20.864h-48.264
	c-11.032,0-20.608,7.48-23.288,18.176L45.727,495.95h404.496L418.767,370.126z M380.879,265.542l-9.592-9.592h-19.312v-20.688l16-16
	v-21.896l24-9.6v14.32C391.975,223.822,388.151,245.302,380.879,265.542z M103.975,202.094v-23c0-37.024,30.12-67.144,67.144-67.144
	c13.4,0,26.856,4.304,38.92,12.44c11.376,7.672,24.136,11.56,37.936,11.56c13.8,0,26.56-3.888,37.944-11.56
	c12.056-8.136,25.512-12.44,38.912-12.44c34.192,0,62.448,25.712,66.568,58.808l-39.424,15.776v26.104l-16,16v43.312h28.688
	l9.576,9.576c-6.552,14.04-14.792,27.32-24.696,39.424c-18.904,23.112-32.728,50.632-39.968,79.584l-9.968,39.856
	c-1.104,4.456-5.08,7.56-9.664,7.56c-5.496,0-9.968-4.472-9.968-9.968V335.95c0-17.648-14.352-32-32-32s-32,14.352-32,32v102.032
	c0,5.496-4.472,9.968-9.968,9.968c-4.584,0-8.56-3.104-9.672-7.552l-9.968-39.856c-7.24-28.96-21.056-56.48-39.968-79.584
	C119.047,287.51,103.975,245.294,103.975,202.094z M92.703,374.014c0.888-3.568,4.08-6.064,7.76-6.064h57.04
	c5.68,11.68,10.208,23.92,13.344,36.472l9.968,39.856c2.888,11.584,13.256,19.672,25.192,19.672
	c14.32,0,25.968-11.648,25.968-25.968V335.95c0-8.824,7.176-16,16-16s16,7.176,16,16v102.032c0,14.32,11.648,25.968,25.968,25.968
	c11.936,0,22.304-8.088,25.192-19.672l9.968-39.856c3.136-12.552,7.664-24.792,13.344-36.472h57.04c3.68,0,6.872,2.496,7.76,6.064
	l26.48,105.936H66.223L92.703,374.014z"/>
<path d="M431.975,199.95c0,26.76-5.616,52.552-16.68,76.664l14.536,6.672c12.04-26.216,18.144-54.256,18.144-83.336
	c0-22.864-3.832-45.296-11.384-66.664l-15.088,5.328C428.455,158.27,431.975,178.91,431.975,199.95z"/>
<path d="M309.311,26.422l5.328-15.088c-42.736-15.112-90.592-15.112-133.328,0l5.328,15.088
	C225.951,12.526,269.999,12.526,309.311,26.422z"/>
<path d="M80.655,276.614c-11.064-24.112-16.68-49.904-16.68-76.664c0-21.04,3.52-41.68,10.472-61.336l-15.088-5.328
	c-7.552,21.368-11.384,43.8-11.384,66.664c0,29.08,6.104,57.12,18.144,83.336L80.655,276.614z"/>
<path d="M324.415,158.606l-8.84-13.336c-0.232,0.152-23.024,14.68-67.6,14.68s-67.368-14.528-67.6-14.68l-8.84,13.336
	c1.064,0.704,26.592,17.344,76.44,17.344S323.351,159.31,324.415,158.606z"/>
<path d="M191.975,207.95h-19.056l-8-16h-35.192l-11.072,44.288l17.32,8.656v27.056h40v-19.056l16-8V207.95z M175.975,235.006l-16,8
	v12.944h-8v-20.944l-14.68-7.336l4.928-19.72h12.808l8,16h12.944V235.006z"/>
<rect x="223.975" y="223.95" width="16" height="16"/>
<rect x="287.975" y="263.95" width="16" height="16"/>
<rect x="143.975" y="25.676" transform="matrix(-0.8661 0.4999 -0.4999 -0.8661 300.4326 -13.1293)" width="16" height="16"/>
<rect x="104.214" y="56.185" transform="matrix(-0.7071 0.7071 -0.7071 -0.7071 236.9464 30.224)" width="16" height="16"/>
<rect x="73.701" y="95.944" transform="matrix(-0.4999 0.8661 -0.8661 -0.4999 212.5679 85.1449)" width="16" height="16"/>
<rect x="406.26" y="95.935" transform="matrix(-0.8661 0.4999 -0.4999 -0.8661 825.0029 -13.1332)" width="16" height="16"/>
<rect x="375.739" y="56.172" transform="matrix(-0.7071 0.7071 -0.7071 -0.7071 700.4598 -161.7964)" width="16" height="16"/>
<rect x="335.969" y="25.659" transform="matrix(-0.4999 0.8661 -0.8661 -0.4999 545.0687 -247.4233)" width="16" height="16"/>
<g>
</g>
<g>
</g>
<g>
</g>
<g>
</g>
<g>
</g>
<g>
</g>
<g>
</g>
<g>
</g>
<g>
</g>
<g>
</g>
<g>
</g>
<g>
</g>
<g>
</g>
<g>
</g>
<g>
</g>
</svg>
