<?xml version="1.0"?>
<svg xmlns="http://www.w3.org/2000/svg" xmlns:xlink="http://www.w3.org/1999/xlink" xmlns:svgjs="http://svgjs.com/svgjs" version="1.1" width="512" height="512" x="0" y="0" viewBox="0 0 45 56" style="enable-background:new 0 0 512 512" xml:space="preserve" class=""><g><g xmlns="http://www.w3.org/2000/svg" id="009---Female-Customer-Advisor" transform="translate(0 -1)"><path id="Shape" d="m16 37.561v3.439c.008.4.238 4 6 4 5.932 0 6-3.837 6-4v-3.439c-3.648 4.484-8.174 4.702-12 0z" fill="#f0cc02" data-original="#000000" style=""/><path id="Shape" d="m37 37c0 .5522847-.4477153 1-1 1s-1-.4477153-1-1v-6h-3.3c-.4899908 1.2211363-1.0578238 2.4095774-1.7 3.558v5.758l9.44 3.678c1.3296277-3.0329364.303128-6.5827744-2.44-8.438z" fill="#f0cc02" data-original="#000000" style=""/><path id="Shape" d="m30.1 29.611c1.142-2.952.9-2.288.9-9.248 0-.186.187-.078-2.4-1.672-2.2729975-1.3508629-4.4758412-2.8164215-6.6-4.391-3.149 2.493-9.288 5.908-8.979 5.908-.035.1-.021-.11-.021 6.064.081989 1.1606043.3875971 2.2944102.9 3.339.446777 1.1566846.9565397 2.288044 1.527 3.389h2.573v-1c0-1.1045695.8954305-2 2-2h4c1.1045695 0 2 .8954305 2 2v2c0 1.1045695-.8954305 2-2 2h-4c-.7113268-.002145-1.3675874-.3832487-1.722-1h-1.684c3.875 5.88 7.943 5.068 11.482-1.087.7802241-1.381923 1.4567509-2.8198768 2.024-4.302z" fill="#f0cc02" data-original="#000000" style=""/><path id="Shape" d="m20.768 12.725c.7206418-.5751568 1.7433582-.5751568 2.464 0 3.145 2.494 8.685 5.414 9.325 6.275h2.443v-2c-.0071648-6.624447-5.375553-11.99283515-12-12h-2c-6.624447.00716485-11.99283515 5.375553-12 12v2h2.44c.645-.871 6.065-3.693 9.328-6.275z" fill="#f0cc02" data-original="#000000" style=""/><path id="Rectangle-path" d="m20 32h4v2h-4z" fill="#f0cc02" data-original="#000000" style=""/><path id="Shape" d="m8 29h3.547c-.688-1.989-.547-1.667-.547-8h-3c-.55228475 0-1 .4477153-1 1v6c0 .5522847.44771525 1 1 1z" fill="#f0cc02" data-original="#000000" style=""/><path id="Shape" d="m32.453 29h3.547c.5522847 0 1-.4477153 1-1v-6c0-.5522847-.4477153-1-1-1h-3c0 6.261.142 6.008-.547 8z" fill="#f0cc02" data-original="#000000" style=""/><path id="Shape" d="m9 31c0 1.1045695.8954305 2 2 2h2.191c-.335-.7-.633-1.373-.889-2z" fill="#f0cc02" data-original="#000000" style=""/><path id="Shape" d="m21 3h2c4.4065324.003686 8.5529863 2.0863645 11.187 5.619-3.948-10.185-20.425-10.186-24.374 0 2.6340137-3.5326355 6.7804676-5.615314 11.187-5.619z" fill="#f0cc02" data-original="#000000" style=""/><path id="Shape" d="m43.981 53.005c-.234-5.152-2.45-6.051-2.472-6.06-2.086-.814-10.331-4.023-11.757-4.579-.539 1.77-2.258 4.634-7.752 4.634s-7.212-2.863-7.752-4.634l-11.719 4.566c-.06.022-2.285.921-2.52 6.113v3.955h44.07z" fill="#f0cc02" data-original="#000000" style=""/><path id="Shape" d="m14 40.317v-5.317c-2.916 0-3.746.175-5-.556v2.556c0 .5522847-.44771525 1-1 1s-1-.4477153-1-1v-1.444c-2.74577027 1.8561259-3.77219604 5.4096885-2.439 8.444z" fill="#f0cc02" data-original="#000000" style=""/></g></g></svg>
